<?xml version="1.0" encoding="UTF-8"?>
<svg id="Layer_1" data-name="Layer 1" xmlns="http://www.w3.org/2000/svg" viewBox="0 0 115.44 93.78">
  <defs>
    <style>
      .cls-1 {
        fill: #69898c;
      }

      .cls-2 {
        fill: #638585;
      }

      .cls-3 {
        fill: #678788;
      }

      .cls-4 {
        fill: #6a8b8c;
      }

      .cls-5 {
        fill: #6f9091;
      }

      .cls-6 {
        fill: #f8fafa;
      }

      .cls-7 {
        fill: #fff;
      }

      .cls-8 {
        fill: #668b8f;
      }

      .cls-9 {
        fill: #6b8f92;
      }

      .cls-10 {
        fill: #688;
      }

      .cls-11 {
        fill: #6f9297;
      }

      .cls-12 {
        fill: #668588;
      }

      .cls-13 {
        fill: #668f95;
      }

      .cls-14 {
        fill: #708f8f;
      }

      .cls-15 {
        fill: #6a8b8b;
      }

      .cls-16 {
        fill: #feffff;
      }

      .cls-17 {
        fill: #738f92;
      }

      .cls-18 {
        fill: #688d91;
      }
    </style>
  </defs>
  <g id="Generative_Object" data-name="Generative Object">
    <g>
      <path class="cls-13" d="M46.92,39.98l-7.19,8.23c-3.54.77-7.07.83-10.8.73,2.96.9,5.96,1.18,8.96,1.2-1.68,1.48-3.17,2.78-5.17,3.43-3.81,1.24-7.59,1.66-11.69,2.11,2.76.72,5.49.81,8.35,1.1-1.87.42-3.78.44-5.78.4l-5.29-.1c1.99.72,3.9,1.18,5.5,2.67-3.03-1.18-6.16-1.85-9.41-1.56-1.12,1.24-1.94,2.5-2.93,3.88-.33-.1-.66-.32-.83-.69,9.7-14.26,22.19-25.75,35.9-35.53-.82-.05-1.25.61-1.86.99-13.8,8.6-26.26,19.6-35.78,33.33-.24.06-.59-.22-.63-.39l1.9-3.14c.42-1.53.06-3.27-.17-4.86-.49-3.35-1-6.48-1.12-9.85.39.23.32.68.39,1.04.51,2.69,1.28,5.14,2.14,7.81-.01-4.06-.28-8.14.64-12.24.12,3.43.33,6.74.84,10.17.04.25-.27.95.2,1.03.18.03.31-.63.04-.84.27-3.08.54-6,1.32-8.99,3.17-4.17,6.87-7.69,10.96-10.7-.63,3.16-.85,5.85-.53,8.67.42-3.57,1.09-6.92,2.33-10.15,4.39-3.09,8.71-5.97,13.42-8.46-.36,1.56-.93,2.76-.9,4.27.69-1.78,1.36-3.48,2.42-5.04,2.97-1.55,5.94-2.79,8.98-4.08,1.18-.5,2.29-.89,3.46-1.59l-.04,1.85-2.37,1.07c-.22.1,0,.86.17.79l2.56-1c.59.93,1.67,1.5,2.83,1.12,1.88-.62,2.37-1.75,3.05-1.2.5-.24.99.06,1.21.51.72-.23,1.23-.11,1.75-.16-.15-.75-.42-1.34-1.2-1.32-.41-.03-.11-1.2.64-1.33,1.23,2.27,3.07,4.87,1.2,6.29-1.01.77-2.41.52-3.13-.67-1.34.86-2.72,1.59-4.14,2.22-.2-.26-.33-.53-.34-.69,0-.3.57-.24.73-.33l3.48-1.96c.16-.3.04-.97.48-1.27l-.81-.73c-1.43,1.04-2.89,1.79-4.49,2.5-.89-1.18-2.13-1.27-3.2-.84-1.15.47-1.72,1.59-1.59,2.94l-2.05,1.01c-.19.09.11.8.28.77l2.12-.83c.62,1.05,1.5,1.35,2.65,1.08l-.04.85c.39-.3.64-.52.79-.24l1.05,1.98c-.72.44-.92,1.32-.69,2.26-1.33,1.06-2.84.83-1.88,1.96.72-.11,1.35-.61,2.16-1.01.55.56.99.89,1.77,1.32l-4.14,3.27-6.43.85,5.37.41-5.47,5.68ZM64.26,18.4c.3-.45.12-.91-.17-1.24-.6-.7-1.35-.65-1.86,0-.41.52-.3,1.28.19,1.65.6.45,1.38.26,1.84-.42ZM53.78,26.74c.94-.37,1.1-1.66.62-2.51-.39-.68-1.33-1.22-2.14-.67s-.84,1.49-.42,2.26c.33.6,1.11,1.25,1.93.92ZM51.31,26.15c-.41-.91-1.3-1.48-2.08-1.09-.89.44-1.04,1.42-.63,2.34s1.3,1.41,2.18.92c.7-.39.94-1.26.53-2.17ZM47.79,29.15c.17.38.27.43.49.41.27-.03.41-.22.29-.47l-1.43-2.91c-.56.28-.75.8-.93,1.4.3.03.43-.05.68-.38l.9,1.94Z"/>
      <path class="cls-13" d="M.5,77.93l4.73-8.03c.85.19,1.48-.19,1.65-.81.18-.66,0-1.38-.65-1.76-.49-.29-1.21-.15-1.61.44-.34.5-.38,1.24.14,1.83l-4.77,8.06c1.13-3.75,1.54-7.53,1.32-11.63,2.42-1.19,4.27-3.17,5.92-5.41,1.67.96,3.05,2.02,4.46,3.22-1.47,2.48-2.18,5.14-2.05,7.96-2.92,1.36-5.53,3.03-7.98,5.12-.42.27-.5.82-1.18,1.01Z"/>
      <path class="cls-4" d="M57.01,23.33l2.22-1.33c.25-.74.59-1.37,1.4-1.39.74-.02,1.38.42,1.58,1.24.15.61-.21,1.38-.78,1.67-.69.35-1.52.14-1.96-.63-1.52.65-2.68,1.01-2.12,2.07.95-.24,1.78.02,2.49.79l7.55-4.11c-.05-.83.21-1.61.96-1.91.63-.26,1.41,0,1.79.57.45.7.24,1.5-.28,2.04-.6.62-1.44.29-2.11.02l-7.65,4.13c.08,1.12-.44,1.94-1.17,2.23-.94.36-1.84-.03-2.31-.69-.63-.87-.37-1.95.38-2.8l-1.34-2.81c-.08-.18,0-.3.05-.37.3-.36.87.27,1.32,1.28ZM68.54,20.49c-.41.25-.46.82-.29,1.08.3.46.72.46,1.03.3.37-.2.5-.78.3-1.08-.26-.38-.65-.53-1.04-.3ZM60.4,21.51c-.46.28-.44.81-.26,1.07.31.44.72.39.99.2.37-.26.45-.65.28-.94-.23-.4-.65-.55-1.02-.33ZM57.83,25.81c-.64.3-.94,1.01-.59,1.59.26.43.89.67,1.31.48.59-.26.81-.86.61-1.41-.17-.49-.81-.91-1.33-.65Z"/>
      <path class="cls-15" d="M65.32,14.65c-.39-.45-.66-.91-.64-1.5s.23-1.11.89-1.59c-.11-.17-.43-.56-.68-.64l-5.18,2.85c-.15-.13-.21-.71-.05-.8l3.93-2.29c.55-.32.92-.48,1.51-.45.65.04.87.7,1.31,1,1.24.83,1.5,2.07,1.66,3.42.91.1,2.15.38,2.44,1.38s.05,2.05-.79,2.55c-.98.58-2.08.34-2.66-.5-.65-.93-.6-2.03.29-3-.91.28-1.48.21-2.03-.43ZM65.99,12.22c-.38.04-.58.43-.57.81,0,.54.16.84.46,1.16.23.25.7.5,1.07.12.31-.33-.48-2.13-.95-2.08ZM68.3,15.63c-.73.28-1.02,1.09-.72,1.7.25.5.86.82,1.53.57.45-.17.92-.86.63-1.54-.19-.44-.79-.98-1.45-.73Z"/>
      <path class="cls-12" d="M58.92,11.43c-.27.15-.76-.17-.89-.44l4.19-2.34c.66-.37.82-1,.73-1.77-.12-1,.85-1.72,1.65-1.6.91.14,1.58,1.01,1.25,1.96-.16.46-.55.78-.69.87-.66.23-1.07.1-1.64-.09-.25.84-.74,1.25-1.36,1.6l-3.25,1.81ZM64.15,6.11c-.42.25-.63.75-.35,1.17.21.3.65.46.99.23.37-.25.48-.69.36-.99-.18-.44-.6-.65-1.01-.41Z"/>
      <path class="cls-18" d="M74.04,1.84c.92-.36,1.85.23,2.11,1.08s-.16,1.89-1.15,2.2c-.7.22-1.66-.1-1.98-.99-.29-.8.03-1.91,1.02-2.3Z"/>
      <path class="cls-9" d="M73.69,11.87c.85-.37,1.82.04,2.25.92.36.74.08,1.84-.96,2.32-.66.31-1.71.01-2.11-.92-.34-.77-.1-1.9.83-2.32Z"/>
      <path class="cls-14" d="M55.99,19.39c.32,1-.28,2.32-1.19,2.6s-1.75,0-2.16-.67-.45-1.55.02-2.33c.34-.56,1.17-.95,1.98-.67.48.17,1.17.5,1.35,1.07ZM53.58,19.31c-.58.39-.65,1.17-.26,1.63.35.42.96.55,1.54.12.36-.27.55-.91.3-1.38-.31-.59-.98-.79-1.59-.38Z"/>
      <path class="cls-17" d="M58.83,15.32c-.76.87-2.28.78-3-.09-.86-1.04-.33-2.79.91-3.16.91-.27,1.7.19,2.14.89.39.62.61,1.61-.05,2.36ZM56.83,12.92c-.63.33-.83,1.17-.52,1.69.34.56,1.05.73,1.61.38.48-.29.65-.95.45-1.46-.26-.67-.91-.94-1.54-.61Z"/>
      <path class="cls-10" d="M71.29,10.86c.34,1,.06,1.77-.62,2.11-.87.44-1.64-.02-2.12-.84-.33-.57-.44-1.23-.12-1.87.24-.47.79-.86,1.51-.79.54.05,1.08.6,1.35,1.38ZM70.04,10.28c-.22-.16-.73-.16-.91.16-.35.64-.02,1.54.58,1.9.33.2.76.05.97-.19.28-.33-.08-1.49-.64-1.88Z"/>
      <path class="cls-3" d="M76.69,7.55c.42.89.28,1.79-.39,2.22-.83.54-1.68.15-2.2-.69-.36-.58-.5-1.23-.25-1.86.22-.55.79-.92,1.43-.87s1.07.49,1.41,1.2ZM75.96,7.72c-.31-.59-.77-.86-1.22-.6-.37.22-.43.71-.26,1.18.18.5.7,1.24,1.3,1.02.66-.24.45-1.09.17-1.6Z"/>
      <path class="cls-12" d="M80.72,5.24c.44.89.35,1.8-.42,2.25s-1.64.07-2.15-.76c-.33-.53-.55-1.18-.25-1.87.17-.41.72-.82,1.38-.81.54,0,1.1.51,1.43,1.18ZM80.11,5.65c-.24-.59-.76-1.22-1.34-.84s-.26,1.16.02,1.67.75.65,1.05.51c.56-.25.5-.79.27-1.34Z"/>
      <path class="cls-1" d="M69.31,5.12c.83-.2,1.58.38,1.74,1.06.2.86-.18,1.66-.96,1.86-.73.19-1.57-.19-1.78-.87-.27-.89.1-1.84,1-2.05ZM69.34,5.91c-.46.3-.45.84-.27,1.1.3.45.7.41,1.01.21.34-.22.4-.65.26-.93-.2-.4-.64-.61-1-.38Z"/>
      <path class="cls-11" d="M83.02,0c.73-.08,1.28.5,1.35,1.06.09.74-.37,1.33-.94,1.45-.7.15-1.27-.32-1.43-.88-.22-.75.27-1.54,1.03-1.63Z"/>
      <path class="cls-2" d="M73.89,11.11c-.87.84-.78-.83-1.88-2.12-.1-.03-.28.22-.34.3-.08.12-.45-.06-.35-.28.21-.46.48-.84.98-1.19l1.58,3.28Z"/>
      <path class="cls-7" d="M51.31,26.15c.42.91.17,1.78-.53,2.17-.87.48-1.78-.04-2.18-.92s-.27-1.9.63-2.34c.77-.39,1.66.18,2.08,1.09ZM50.58,27.6c.57-.57-.17-2.1-.93-1.99s-.59,1.05-.41,1.46c.2.45.81,1.05,1.34.52Z"/>
      <path class="cls-7" d="M53.78,26.74c-.82.33-1.6-.31-1.93-.92-.42-.77-.39-1.72.42-2.26s1.75-.01,2.14.67c.48.85.32,2.14-.62,2.51ZM53.76,26.01c.46-.33.21-1.16-.02-1.51-.18-.27-.55-.71-1.01-.45-.53.3-.44.94-.18,1.41.18.32.67.94,1.21.55Z"/>
      <path class="cls-7" d="M64.26,18.4c-.45.68-1.24.87-1.84.42-.5-.37-.6-1.13-.19-1.65.51-.66,1.27-.7,1.86,0,.28.33.47.79.17,1.24Z"/>
      <path class="cls-6" d="M47.79,29.15l-.9-1.94c-.25.33-.38.41-.68.38.18-.6.38-1.12.93-1.4l1.43,2.91c.12.25-.02.44-.29.47-.22.02-.32-.04-.49-.41Z"/>
      <path class="cls-7" d="M57.83,25.81c.53-.25,1.16.16,1.33.65.19.55-.03,1.15-.61,1.41-.43.19-1.06-.05-1.31-.48-.34-.58-.05-1.28.59-1.59Z"/>
      <path class="cls-16" d="M68.54,20.49c.39-.23.77-.08,1.04.3.21.29.08.88-.3,1.08-.31.16-.73.16-1.03-.3-.17-.26-.13-.83.29-1.08Z"/>
      <path class="cls-7" d="M60.4,21.51c.37-.22.79-.07,1.02.33.17.29.09.68-.28.94-.27.19-.68.25-.99-.2-.18-.26-.21-.79.26-1.07Z"/>
      <path class="cls-7" d="M65.99,12.22c.47-.04,1.26,1.76.95,2.08-.37.39-.84.13-1.07-.12-.29-.32-.46-.62-.46-1.16,0-.38.19-.77.57-.81Z"/>
      <path class="cls-7" d="M64.15,6.11c.41-.24.83-.03,1.01.41.12.3.01.73-.36.99-.34.23-.79.07-.99-.23-.29-.41-.08-.92.35-1.17Z"/>
      <path class="cls-7" d="M53.58,19.31c.61-.41,1.28-.21,1.59.38.24.47.06,1.11-.3,1.38-.58.43-1.19.3-1.54-.12-.39-.47-.32-1.25.26-1.63Z"/>
      <path class="cls-7" d="M56.83,12.92c.63-.32,1.28-.05,1.54.61.2.51.03,1.17-.45,1.46-.56.35-1.28.18-1.61-.38-.31-.52-.11-1.37.52-1.69Z"/>
      <path class="cls-7" d="M80.11,5.65c.23.56.29,1.09-.27,1.34-.3.13-.79-.03-1.05-.51-.27-.51-.62-1.28-.02-1.67s1.1.25,1.34.84Z"/>
      <path class="cls-7" d="M69.34,5.91c.36-.24.8-.03,1,.38.14.28.08.71-.26.93-.31.2-.71.24-1.01-.21-.18-.26-.18-.8.27-1.1Z"/>
      <path class="cls-8" d="M50.58,27.6c-.53.53-1.14-.07-1.34-.52-.18-.41-.34-1.36.41-1.46s1.5,1.42.93,1.99Z"/>
      <path class="cls-5" d="M53.76,26.01c-.53.38-1.03-.23-1.21-.55-.26-.47-.35-1.11.18-1.41.45-.25.83.19,1.01.45.23.35.48,1.19.02,1.51Z"/>
    </g>
    <g>
      <path class="cls-13" d="M31.14,93.78l-3.15-4.29c-1.37.41-2.92.64-4.61.64-7.15,0-11.55-4.03-11.55-10.39s4.46-10.44,11.61-10.44,11.64,4.03,11.64,10.42c0,3.38-1.28,6.1-3.53,7.94l2.89,3.82-3.3,2.3ZM23.43,72.92c-4.49,0-7.41,2.6-7.41,6.77s2.92,6.74,7.41,6.74,7.41-2.54,7.41-6.74-2.89-6.77-7.41-6.77Z"/>
      <path class="cls-13" d="M53.37,89.79h-3.82v-1.75h-.06c-.67.76-2.31,2.1-5.43,2.1-3.71,0-6.27-1.98-6.27-6.51v-8.23h4v7.26c0,2.98,1.25,4,3.71,4,1.95,0,3.3-1.05,3.88-1.66v-9.6h4v14.38Z"/>
      <path class="cls-13" d="M61.04,73.39h-4.11v-3.59h4.11v3.59ZM60.98,89.79h-4v-14.38h4v14.38Z"/>
      <path class="cls-13" d="M68.77,89.79h-4v-20.71h4v20.71Z"/>
      <path class="cls-13" d="M76.55,89.79h-4v-20.71h4v20.71Z"/>
      <path class="cls-13" d="M109.02,89.79h-4.49l-2.33-5.46h-9.1l-2.28,5.46h-4.41l9.07-20.13h4.49l9.04,20.13ZM97.68,73.51h-.06l-3.3,7.88h6.71l-3.35-7.88Z"/>
      <path class="cls-13" d="M115.44,89.79h-4.11v-20.13h4.11v20.13Z"/>
    </g>
  </g>
</svg>